# Yut Low Poly | meters | length +Z | flat side +Y
mtllib Yut_BackDo.mtl
o Yut_BackDo
v 0.02800000 0.01188357 -0.14500000
v 0.02586863 0.00116843 -0.14500000
v 0.02172965 0.00098148 -0.15000000
v 0.02352000 0.00998220 -0.15000000
v 0.02586863 0.00116843 -0.14500000
v 0.01979899 -0.00791542 -0.14500000
v 0.01663115 -0.00664895 -0.15000000
v 0.02172965 0.00098148 -0.15000000
v 0.01979899 -0.00791542 -0.14500000
v 0.01071514 -0.01398506 -0.14500000
v 0.00900071 -0.01174745 -0.15000000
v 0.01663115 -0.00664895 -0.15000000
v 0.01071514 -0.01398506 -0.14500000
v 0.00000000 -0.01611643 -0.14500000
v 0.00000000 -0.01353780 -0.15000000
v 0.00900071 -0.01174745 -0.15000000
v 0.00000000 -0.01611643 -0.14500000
v -0.01071514 -0.01398506 -0.14500000
v -0.00900071 -0.01174745 -0.15000000
v 0.00000000 -0.01353780 -0.15000000
v -0.01071514 -0.01398506 -0.14500000
v -0.01979899 -0.00791542 -0.14500000
v -0.01663115 -0.00664895 -0.15000000
v -0.00900071 -0.01174745 -0.15000000
v -0.01979899 -0.00791542 -0.14500000
v -0.02586863 0.00116843 -0.14500000
v -0.02172965 0.00098148 -0.15000000
v -0.01663115 -0.00664895 -0.15000000
v -0.02586863 0.00116843 -0.14500000
v -0.02800000 0.01188357 -0.14500000
v -0.02352000 0.00998220 -0.15000000
v -0.02172965 0.00098148 -0.15000000
v -0.02800000 0.01188357 -0.14500000
v 0.02800000 0.01188357 -0.14500000
v 0.02352000 0.00998220 -0.15000000
v -0.02352000 0.00998220 -0.15000000
v 0.02800000 0.01188357 0.14500000
v 0.02586863 0.00116843 0.14500000
v 0.02586863 0.00116843 -0.14500000
v 0.02800000 0.01188357 -0.14500000
v 0.02586863 0.00116843 0.14500000
v 0.01979899 -0.00791542 0.14500000
v 0.01979899 -0.00791542 -0.14500000
v 0.02586863 0.00116843 -0.14500000
v 0.01979899 -0.00791542 0.14500000
v 0.01071514 -0.01398506 0.14500000
v 0.01071514 -0.01398506 -0.14500000
v 0.01979899 -0.00791542 -0.14500000
v 0.01071514 -0.01398506 0.14500000
v 0.00000000 -0.01611643 0.14500000
v 0.00000000 -0.01611643 -0.14500000
v 0.01071514 -0.01398506 -0.14500000
v 0.00000000 -0.01611643 0.14500000
v -0.01071514 -0.01398506 0.14500000
v -0.01071514 -0.01398506 -0.14500000
v 0.00000000 -0.01611643 -0.14500000
v -0.01071514 -0.01398506 0.14500000
v -0.01979899 -0.00791542 0.14500000
v -0.01979899 -0.00791542 -0.14500000
v -0.01071514 -0.01398506 -0.14500000
v -0.01979899 -0.00791542 0.14500000
v -0.02586863 0.00116843 0.14500000
v -0.02586863 0.00116843 -0.14500000
v -0.01979899 -0.00791542 -0.14500000
v -0.02586863 0.00116843 0.14500000
v -0.02800000 0.01188357 0.14500000
v -0.02800000 0.01188357 -0.14500000
v -0.02586863 0.00116843 -0.14500000
v -0.02800000 0.01188357 0.14500000
v 0.02800000 0.01188357 0.14500000
v 0.02800000 0.01188357 -0.14500000
v -0.02800000 0.01188357 -0.14500000
v 0.02352000 0.00998220 0.15000000
v 0.02172965 0.00098148 0.15000000
v 0.02586863 0.00116843 0.14500000
v 0.02800000 0.01188357 0.14500000
v 0.02172965 0.00098148 0.15000000
v 0.01663115 -0.00664895 0.15000000
v 0.01979899 -0.00791542 0.14500000
v 0.02586863 0.00116843 0.14500000
v 0.01663115 -0.00664895 0.15000000
v 0.00900071 -0.01174745 0.15000000
v 0.01071514 -0.01398506 0.14500000
v 0.01979899 -0.00791542 0.14500000
v 0.00900071 -0.01174745 0.15000000
v 0.00000000 -0.01353780 0.15000000
v 0.00000000 -0.01611643 0.14500000
v 0.01071514 -0.01398506 0.14500000
v 0.00000000 -0.01353780 0.15000000
v -0.00900071 -0.01174745 0.15000000
v -0.01071514 -0.01398506 0.14500000
v 0.00000000 -0.01611643 0.14500000
v -0.00900071 -0.01174745 0.15000000
v -0.01663115 -0.00664895 0.15000000
v -0.01979899 -0.00791542 0.14500000
v -0.01071514 -0.01398506 0.14500000
v -0.01663115 -0.00664895 0.15000000
v -0.02172965 0.00098148 0.15000000
v -0.02586863 0.00116843 0.14500000
v -0.01979899 -0.00791542 0.14500000
v -0.02172965 0.00098148 0.15000000
v -0.02352000 0.00998220 0.15000000
v -0.02800000 0.01188357 0.14500000
v -0.02586863 0.00116843 0.14500000
v -0.02352000 0.00998220 0.15000000
v 0.02352000 0.00998220 0.15000000
v 0.02800000 0.01188357 0.14500000
v -0.02800000 0.01188357 0.14500000
v 0.02352000 0.00998220 -0.15000000
v 0.02172965 0.00098148 -0.15000000
v 0.01663115 -0.00664895 -0.15000000
v 0.00900071 -0.01174745 -0.15000000
v 0.00000000 -0.01353780 -0.15000000
v -0.00900071 -0.01174745 -0.15000000
v -0.01663115 -0.00664895 -0.15000000
v -0.02172965 0.00098148 -0.15000000
v -0.02352000 0.00998220 -0.15000000
v -0.02352000 0.00998220 0.15000000
v -0.02172965 0.00098148 0.15000000
v -0.01663115 -0.00664895 0.15000000
v -0.00900071 -0.01174745 0.15000000
v 0.00000000 -0.01353780 0.15000000
v 0.00900071 -0.01174745 0.15000000
v 0.01663115 -0.00664895 0.15000000
v 0.02172965 0.00098148 0.15000000
v 0.02352000 0.00998220 0.15000000
vt 0.54000000 0.23250000
vt 0.59375000 0.23250000
vt 0.59375000 0.22000000
vt 0.54000000 0.22000000
vt 0.59375000 0.23250000
vt 0.64750000 0.23250000
vt 0.64750000 0.22000000
vt 0.59375000 0.22000000
vt 0.64750000 0.23250000
vt 0.70125000 0.23250000
vt 0.70125000 0.22000000
vt 0.64750000 0.22000000
vt 0.70125000 0.23250000
vt 0.75500000 0.23250000
vt 0.75500000 0.22000000
vt 0.70125000 0.22000000
vt 0.75500000 0.23250000
vt 0.80875000 0.23250000
vt 0.80875000 0.22000000
vt 0.75500000 0.22000000
vt 0.80875000 0.23250000
vt 0.86250000 0.23250000
vt 0.86250000 0.22000000
vt 0.80875000 0.22000000
vt 0.86250000 0.23250000
vt 0.91625000 0.23250000
vt 0.91625000 0.22000000
vt 0.86250000 0.22000000
vt 0.91625000 0.23250000
vt 0.97000000 0.23250000
vt 0.97000000 0.22000000
vt 0.91625000 0.22000000
vt 0.03000000 0.23250000
vt 0.46000000 0.23250000
vt 0.46000000 0.22000000
vt 0.03000000 0.22000000
vt 0.54000000 0.95750000
vt 0.59375000 0.95750000
vt 0.59375000 0.23250000
vt 0.54000000 0.23250000
vt 0.59375000 0.95750000
vt 0.64750000 0.95750000
vt 0.64750000 0.23250000
vt 0.59375000 0.23250000
vt 0.64750000 0.95750000
vt 0.70125000 0.95750000
vt 0.70125000 0.23250000
vt 0.64750000 0.23250000
vt 0.70125000 0.95750000
vt 0.75500000 0.95750000
vt 0.75500000 0.23250000
vt 0.70125000 0.23250000
vt 0.75500000 0.95750000
vt 0.80875000 0.95750000
vt 0.80875000 0.23250000
vt 0.75500000 0.23250000
vt 0.80875000 0.95750000
vt 0.86250000 0.95750000
vt 0.86250000 0.23250000
vt 0.80875000 0.23250000
vt 0.86250000 0.95750000
vt 0.91625000 0.95750000
vt 0.91625000 0.23250000
vt 0.86250000 0.23250000
vt 0.91625000 0.95750000
vt 0.97000000 0.95750000
vt 0.97000000 0.23250000
vt 0.91625000 0.23250000
vt 0.03000000 0.95750000
vt 0.46000000 0.95750000
vt 0.46000000 0.23250000
vt 0.03000000 0.23250000
vt 0.54000000 0.97000000
vt 0.59375000 0.97000000
vt 0.59375000 0.95750000
vt 0.54000000 0.95750000
vt 0.59375000 0.97000000
vt 0.64750000 0.97000000
vt 0.64750000 0.95750000
vt 0.59375000 0.95750000
vt 0.64750000 0.97000000
vt 0.70125000 0.97000000
vt 0.70125000 0.95750000
vt 0.64750000 0.95750000
vt 0.70125000 0.97000000
vt 0.75500000 0.97000000
vt 0.75500000 0.95750000
vt 0.70125000 0.95750000
vt 0.75500000 0.97000000
vt 0.80875000 0.97000000
vt 0.80875000 0.95750000
vt 0.75500000 0.95750000
vt 0.80875000 0.97000000
vt 0.86250000 0.97000000
vt 0.86250000 0.95750000
vt 0.80875000 0.95750000
vt 0.86250000 0.97000000
vt 0.91625000 0.97000000
vt 0.91625000 0.95750000
vt 0.86250000 0.95750000
vt 0.91625000 0.97000000
vt 0.97000000 0.97000000
vt 0.97000000 0.95750000
vt 0.91625000 0.95750000
vt 0.03000000 0.97000000
vt 0.46000000 0.97000000
vt 0.46000000 0.95750000
vt 0.03000000 0.95750000
vt 0.31300000 0.12037183
vt 0.30820441 0.09626278
vt 0.29454773 0.07582411
vt 0.27410906 0.06216742
vt 0.25000000 0.05737183
vt 0.22589094 0.06216742
vt 0.20545227 0.07582411
vt 0.19179559 0.09626278
vt 0.18700000 0.12037183
vt 0.18700000 0.12037183
vt 0.19179559 0.09626278
vt 0.20545227 0.07582411
vt 0.22589094 0.06216742
vt 0.25000000 0.05737183
vt 0.27410906 0.06216742
vt 0.29454773 0.07582411
vt 0.30820441 0.09626278
vt 0.31300000 0.12037183
vn 0.76414853 -0.15199859 -0.62687594
vn 0.76414853 -0.15199859 -0.62687594
vn 0.76414853 -0.15199859 -0.62687594
vn 0.76414853 -0.15199859 -0.62687594
vn 0.69155378 -0.46208146 -0.55518834
vn 0.69155378 -0.46208146 -0.55518834
vn 0.69155378 -0.46208146 -0.55518834
vn 0.69155378 -0.46208146 -0.55518834
vn 0.48420132 -0.72465849 -0.49032556
vn 0.48420132 -0.72465849 -0.49032556
vn 0.48420132 -0.72465849 -0.49032556
vn 0.48420132 -0.72465849 -0.49032556
vn 0.17408719 -0.87519542 -0.45136085
vn 0.17408719 -0.87519542 -0.45136085
vn 0.17408719 -0.87519542 -0.45136085
vn 0.17408719 -0.87519542 -0.45136085
vn -0.17408719 -0.87519542 -0.45136085
vn -0.17408719 -0.87519542 -0.45136085
vn -0.17408719 -0.87519542 -0.45136085
vn -0.17408719 -0.87519542 -0.45136085
vn -0.48420132 -0.72465849 -0.49032556
vn -0.48420132 -0.72465849 -0.49032556
vn -0.48420132 -0.72465849 -0.49032556
vn -0.48420132 -0.72465849 -0.49032556
vn -0.69155378 -0.46208146 -0.55518834
vn -0.69155378 -0.46208146 -0.55518834
vn -0.69155378 -0.46208146 -0.55518834
vn -0.69155378 -0.46208146 -0.55518834
vn -0.76414853 -0.15199859 -0.62687594
vn -0.76414853 -0.15199859 -0.62687594
vn -0.76414853 -0.15199859 -0.62687594
vn -0.76414853 -0.15199859 -0.62687594
vn -0.00000000 0.93469845 -0.35544171
vn -0.00000000 0.93469845 -0.35544171
vn -0.00000000 0.93469845 -0.35544171
vn -0.00000000 0.93469845 -0.35544171
vn 0.98078528 -0.19509032 -0.00000000
vn 0.98078528 -0.19509032 -0.00000000
vn 0.98078528 -0.19509032 -0.00000000
vn 0.98078528 -0.19509032 -0.00000000
vn 0.83146961 -0.55557023 -0.00000000
vn 0.83146961 -0.55557023 -0.00000000
vn 0.83146961 -0.55557023 -0.00000000
vn 0.83146961 -0.55557023 -0.00000000
vn 0.55557023 -0.83146961 -0.00000000
vn 0.55557023 -0.83146961 -0.00000000
vn 0.55557023 -0.83146961 -0.00000000
vn 0.55557023 -0.83146961 -0.00000000
vn 0.19509032 -0.98078528 -0.00000000
vn 0.19509032 -0.98078528 -0.00000000
vn 0.19509032 -0.98078528 -0.00000000
vn 0.19509032 -0.98078528 -0.00000000
vn -0.19509032 -0.98078528 -0.00000000
vn -0.19509032 -0.98078528 -0.00000000
vn -0.19509032 -0.98078528 -0.00000000
vn -0.19509032 -0.98078528 -0.00000000
vn -0.55557023 -0.83146961 -0.00000000
vn -0.55557023 -0.83146961 -0.00000000
vn -0.55557023 -0.83146961 -0.00000000
vn -0.55557023 -0.83146961 -0.00000000
vn -0.83146961 -0.55557023 -0.00000000
vn -0.83146961 -0.55557023 -0.00000000
vn -0.83146961 -0.55557023 -0.00000000
vn -0.83146961 -0.55557023 -0.00000000
vn -0.98078528 -0.19509032 -0.00000000
vn -0.98078528 -0.19509032 -0.00000000
vn -0.98078528 -0.19509032 -0.00000000
vn -0.98078528 -0.19509032 -0.00000000
vn -0.00000000 1.00000000 -0.00000000
vn -0.00000000 1.00000000 -0.00000000
vn -0.00000000 1.00000000 -0.00000000
vn -0.00000000 1.00000000 -0.00000000
vn 0.76414853 -0.15199859 0.62687594
vn 0.76414853 -0.15199859 0.62687594
vn 0.76414853 -0.15199859 0.62687594
vn 0.76414853 -0.15199859 0.62687594
vn 0.69155378 -0.46208146 0.55518834
vn 0.69155378 -0.46208146 0.55518834
vn 0.69155378 -0.46208146 0.55518834
vn 0.69155378 -0.46208146 0.55518834
vn 0.48420132 -0.72465849 0.49032556
vn 0.48420132 -0.72465849 0.49032556
vn 0.48420132 -0.72465849 0.49032556
vn 0.48420132 -0.72465849 0.49032556
vn 0.17408719 -0.87519542 0.45136085
vn 0.17408719 -0.87519542 0.45136085
vn 0.17408719 -0.87519542 0.45136085
vn 0.17408719 -0.87519542 0.45136085
vn -0.17408719 -0.87519542 0.45136085
vn -0.17408719 -0.87519542 0.45136085
vn -0.17408719 -0.87519542 0.45136085
vn -0.17408719 -0.87519542 0.45136085
vn -0.48420132 -0.72465849 0.49032556
vn -0.48420132 -0.72465849 0.49032556
vn -0.48420132 -0.72465849 0.49032556
vn -0.48420132 -0.72465849 0.49032556
vn -0.69155378 -0.46208146 0.55518834
vn -0.69155378 -0.46208146 0.55518834
vn -0.69155378 -0.46208146 0.55518834
vn -0.69155378 -0.46208146 0.55518834
vn -0.76414853 -0.15199859 0.62687594
vn -0.76414853 -0.15199859 0.62687594
vn -0.76414853 -0.15199859 0.62687594
vn -0.76414853 -0.15199859 0.62687594
vn -0.00000000 0.93469845 0.35544171
vn -0.00000000 0.93469845 0.35544171
vn -0.00000000 0.93469845 0.35544171
vn -0.00000000 0.93469845 0.35544171
vn 0.00000000 0.00000000 -1.00000000
vn 0.00000000 0.00000000 -1.00000000
vn 0.00000000 0.00000000 -1.00000000
vn 0.00000000 0.00000000 -1.00000000
vn 0.00000000 0.00000000 -1.00000000
vn 0.00000000 0.00000000 -1.00000000
vn 0.00000000 0.00000000 -1.00000000
vn 0.00000000 0.00000000 -1.00000000
vn 0.00000000 0.00000000 -1.00000000
vn -0.00000000 -0.00000000 1.00000000
vn -0.00000000 -0.00000000 1.00000000
vn -0.00000000 -0.00000000 1.00000000
vn -0.00000000 -0.00000000 1.00000000
vn -0.00000000 -0.00000000 1.00000000
vn -0.00000000 -0.00000000 1.00000000
vn -0.00000000 -0.00000000 1.00000000
vn -0.00000000 -0.00000000 1.00000000
vn -0.00000000 -0.00000000 1.00000000
usemtl YutWood
f 1/1/1 2/2/2 3/3/3
f 1/1/1 3/3/3 4/4/4
f 5/5/5 6/6/6 7/7/7
f 5/5/5 7/7/7 8/8/8
f 9/9/9 10/10/10 11/11/11
f 9/9/9 11/11/11 12/12/12
f 13/13/13 14/14/14 15/15/15
f 13/13/13 15/15/15 16/16/16
f 17/17/17 18/18/18 19/19/19
f 17/17/17 19/19/19 20/20/20
f 21/21/21 22/22/22 23/23/23
f 21/21/21 23/23/23 24/24/24
f 25/25/25 26/26/26 27/27/27
f 25/25/25 27/27/27 28/28/28
f 29/29/29 30/30/30 31/31/31
f 29/29/29 31/31/31 32/32/32
f 33/33/33 34/34/34 35/35/35
f 33/33/33 35/35/35 36/36/36
f 37/37/37 38/38/38 39/39/39
f 37/37/37 39/39/39 40/40/40
f 41/41/41 42/42/42 43/43/43
f 41/41/41 43/43/43 44/44/44
f 45/45/45 46/46/46 47/47/47
f 45/45/45 47/47/47 48/48/48
f 49/49/49 50/50/50 51/51/51
f 49/49/49 51/51/51 52/52/52
f 53/53/53 54/54/54 55/55/55
f 53/53/53 55/55/55 56/56/56
f 57/57/57 58/58/58 59/59/59
f 57/57/57 59/59/59 60/60/60
f 61/61/61 62/62/62 63/63/63
f 61/61/61 63/63/63 64/64/64
f 65/65/65 66/66/66 67/67/67
f 65/65/65 67/67/67 68/68/68
f 69/69/69 70/70/70 71/71/71
f 69/69/69 71/71/71 72/72/72
f 73/73/73 74/74/74 75/75/75
f 73/73/73 75/75/75 76/76/76
f 77/77/77 78/78/78 79/79/79
f 77/77/77 79/79/79 80/80/80
f 81/81/81 82/82/82 83/83/83
f 81/81/81 83/83/83 84/84/84
f 85/85/85 86/86/86 87/87/87
f 85/85/85 87/87/87 88/88/88
f 89/89/89 90/90/90 91/91/91
f 89/89/89 91/91/91 92/92/92
f 93/93/93 94/94/94 95/95/95
f 93/93/93 95/95/95 96/96/96
f 97/97/97 98/98/98 99/99/99
f 97/97/97 99/99/99 100/100/100
f 101/101/101 102/102/102 103/103/103
f 101/101/101 103/103/103 104/104/104
f 105/105/105 106/106/106 107/107/107
f 105/105/105 107/107/107 108/108/108
f 109/109/109 110/110/110 111/111/111
f 109/109/109 111/111/111 112/112/112
f 109/109/109 112/112/112 113/113/113
f 109/109/109 113/113/113 114/114/114
f 109/109/109 114/114/114 115/115/115
f 109/109/109 115/115/115 116/116/116
f 109/109/109 116/116/116 117/117/117
f 118/118/118 119/119/119 120/120/120
f 118/118/118 120/120/120 121/121/121
f 118/118/118 121/121/121 122/122/122
f 118/118/118 122/122/122 123/123/123
f 118/118/118 123/123/123 124/124/124
f 118/118/118 124/124/124 125/125/125
f 118/118/118 125/125/125 126/126/126
